<svg xmlns="http://www.w3.org/2000/svg" xmlns:svg="http://www.w3.org/2000/svg" xmlns:xlink="http://www.w3.org/1999/xlink" version="1.0" height="1000.0000000000003pt" width="1620.0000000000002pt" viewBox="165.00000000000023 66.99999999999989 1628.0000000000002 1006.0000000000003" ><defs><style type="text/css">
            @font-face {
                font-family: 'lt_regular';
                src: url('https://app.creately.com/diagram/assets/fonts/lato/lt-regular-webfont.woff2') format('woff2'),
                    url('https://app.creately.com/diagram/assets/fonts/lato/lt-regular-webfont.woff') format('woff');
                font-weight: normal;
                font-style: normal;
            }
            @font-face {
                font-family: 'noto_regular';
                src: url('https://app.creately.com/diagram/assets/fonts/noto/noto-regular.woff') format('woff'),
                     url('https://app.creately.com/diagram/assets/fonts/noto/noto-regular.woff2') format('woff2');
                font-weight: normal;
                font-style: normal;
            }
        p {
            margin: 0;
        }
        </style></defs><defs><style>
            span{ display: inline-block; }
        </style></defs><g id="jEzl1xcVq5Y"><g transform="translate(170.00000000000023 216.0674157303372)"><rect x="0" y="0" width="270.0000000000001" height="853.932584269663" fill="rgb(165,165,167)" stroke="#a5a5a7" stroke-width="2" stroke-linecap="round" stroke-linejoin="round" stroke-dasharray="0 0"/></g></g><g id="O9xWohAVnLP"><g transform="translate(1520.0000000000005 70.00000000000011)"><rect x="0" y="0" width="269.99999999999994" height="1000" fill="rgb(42,77,209)" stroke="#2a4dd1" stroke-width="2" stroke-linecap="round" stroke-linejoin="round" stroke-dasharray="0 0"/></g><g transform="translate(1655.0000000000005, 561) rotate(0, 0, 9)" width="0" height="18"><text text-decoration="none" x="0" fill="#4b4b4b" font-size="10pt" font-family="noto_regular"  y="17"></text></g></g><g id="HTFP0hzuars"><g transform="translate(1250 70.00000000000011)"><rect x="0" y="0" width="270.00000000000034" height="1000" fill="rgb(225,79,98)" stroke="#e14f62" stroke-width="2" stroke-linecap="round" stroke-linejoin="round" stroke-dasharray="0 0"/></g></g><g id="TZdw5F4hk6I"><g transform="translate(980 70.00000000000011)"><rect x="0" y="0" width="270" height="1000" fill="rgb(42,77,209)" stroke="#2a4dd1" stroke-width="2" stroke-linecap="round" stroke-linejoin="round" stroke-dasharray="0 0"/></g></g><g id="hRIvYrjgiSG"><g transform="translate(710 70.00000000000011)"><rect x="0" y="0" width="270" height="1000" fill="rgb(242,193,75)" stroke="#f2c14b" stroke-width="2" stroke-linecap="round" stroke-linejoin="round" stroke-dasharray="0 0"/></g></g><g id="YKVtR4cb8wk"><g transform="translate(440 69.99999999999989)"><rect x="0" y="0" width="269.99999999999994" height="1000" fill="rgb(42,77,209)" stroke="#2a4dd1" stroke-width="2" stroke-linecap="round" stroke-linejoin="round" stroke-dasharray="0 0"/></g></g><g id="r9qoiA0T9KV"><g transform="translate(719.9999999999998 100)"><path d="M 0,0 L 225.0000000000001,0 L 250.0000000000001,45 L 225.0000000000001,90 L 0,90 L 30,45 L 0,0 Z" fill="rgb(254,208,98)" stroke="#fed062" stroke-width="2" stroke-linecap="round" stroke-linejoin="round" stroke-dasharray="0 0"/></g><g transform="translate(795.9149999999997, 134) rotate(0, 49.085, 11)" width="98.17" height="22"><text text-decoration="none" x="0" fill="#ffffff" font-size="12pt" font-family="lt_regular"  y="17">Consideration</text><text text-decoration="none" x="99" fill="#4b4b4b" font-size="10pt" font-family="noto_regular"  y="17"></text></g></g><g id="J79KgXgHU4m"><g transform="translate(989.9999999999999 99.99999999999997)"><path d="M 0,0 L 225.0000000000001,0 L 250.0000000000001,45 L 225.0000000000001,90 L 0,90 L 30,45 L 0,0 Z" fill="rgb(131,140,241)" stroke="#838cf1" stroke-width="2" stroke-linecap="round" stroke-linejoin="round" stroke-dasharray="0 0"/></g><g transform="translate(1084.585, 133.99999999999997) rotate(0, 30.415, 11)" width="60.83" height="22"><text text-decoration="none" x="0" fill="#ffffff" font-size="12pt" font-family="lt_regular"  y="17">Decision</text><text text-decoration="none" x="61" fill="#4b4b4b" font-size="10pt" font-family="noto_regular"  y="17"></text></g></g><g id="6oIlwy8J5CW"><g transform="translate(1260 99.99999999999997)"><path d="M 0,0 L 225.0000000000001,0 L 250.0000000000001,45 L 225.0000000000001,90 L 0,90 L 30,45 L 0,0 Z" fill="rgb(231,121,117)" stroke="#e77975" stroke-width="2" stroke-linecap="round" stroke-linejoin="round" stroke-dasharray="0 0"/></g><g transform="translate(1359.445, 133.99999999999997) rotate(0, 25.555, 11)" width="51.11" height="22"><text text-decoration="none" x="0.054999999999999716" fill="#ffffff" font-size="12pt" font-family="lt_regular"  y="17">Service</text><text text-decoration="none" x="51.055" fill="#4b4b4b" font-size="10pt" font-family="noto_regular"  y="17"></text></g></g><g id="C5WgVPF2kBL"><g transform="translate(450 99.99999999999999)"><path d="M 0,0 L 225.00000000000006,0 L 250.00000000000006,45 L 225.00000000000006,90 L 0,90 L 30,45 L 0,0 Z" fill="rgb(131,140,241)" stroke="#838cf1" stroke-width="2" stroke-linecap="round" stroke-linejoin="round" stroke-dasharray="0 0"/></g><g transform="translate(536.59, 134) rotate(0, 38.41, 11)" width="76.82" height="22"><text text-decoration="none" x="0" fill="rgb(255, 255, 255)" font-size="12pt" font-family="lt_regular"  y="17">Awareness</text><text text-decoration="none" x="77" fill="#4b4b4b" font-size="10pt" font-family="noto_regular"  y="17"></text></g></g><g id="ib5O86cC0Yw"><g transform="translate(1529.9999999999998 99.99999999999997)"><path d="M 0,0 L 225.0000000000001,0 L 250.0000000000001,45 L 225.0000000000001,90 L 0,90 L 30,45 L 0,0 Z" fill="rgb(131,140,241)" stroke="#838cf1" stroke-width="2" stroke-linecap="round" stroke-linejoin="round" stroke-dasharray="0 0"/></g><g transform="translate(1629.39, 133.99999999999997) rotate(0, 25.61, 11)" width="51.22" height="22"><text text-decoration="none" x="0.10999999999999943" fill="#ffffff" font-size="12pt" font-family="lt_regular"  y="17">Loyalty</text><text text-decoration="none" x="51.11" fill="#4b4b4b" font-size="10pt" font-family="noto_regular"  y="17"></text></g></g><g id="aWZfGO4VovA"><g transform="translate(189.99999999999994 230.00000000000003)"><rect x="0" y="0" width="230.00000000000023" height="100.00000000000003" fill="rgb(108,107,110)" stroke="#6c6b6e" stroke-width="2" stroke-linecap="round" stroke-linejoin="round" stroke-dasharray="0 0"/></g><g transform="translate(240.05500000000006, 269.00000000000006) rotate(0, 64.945, 11)" width="129.89" height="22"><text text-decoration="none" x="0" fill="#ffffff" font-size="12pt" font-family="lt_regular"  y="17">Customer&#160;</text><text text-decoration="none" x="73" fill="#ffffff" font-size="12pt" font-family="lt_regular"  y="17">Actions&#160;</text><text text-decoration="none" x="131" fill="#4b4b4b" font-size="10pt" font-family="noto_regular"  y="17"></text></g></g><g id="T00ZWT78876"><g transform="translate(459.99999999999994 229.99999999999991)"><rect x="0" y="0" width="230.00000000000023" height="100.00000000000003" fill="white" stroke="#ffffff" stroke-width="2" stroke-linecap="round" stroke-linejoin="round"/></g><g transform="translate(480.2650000000001, 247.74999999999994) rotate(0, 94.735, 32.25)" width="189.47" height="64.5"><text text-decoration="none" x="23.235" fill="#4b4b4b" font-size="12pt" font-family="noto_regular"  y="17">View&#160;</text><text text-decoration="none" x="62.235" fill="#4b4b4b" font-size="12pt" font-family="noto_regular"  y="17">online&#160;</text><text text-decoration="none" x="113.235" fill="#4b4b4b" font-size="12pt" font-family="noto_regular"  y="17">ad,&#160;</text><text text-decoration="none" x="140.235" fill="#4b4b4b" font-size="12pt" font-family="noto_regular"  y="17">see&#160;</text><text text-decoration="none" x="6.734999999999999" fill="#4b4b4b" font-size="12pt" font-family="noto_regular"  y="39">social&#160;</text><text text-decoration="none" x="53.735" fill="#4b4b4b" font-size="12pt" font-family="noto_regular"  y="39">media&#160;</text><text text-decoration="none" x="104.735" fill="#4b4b4b" font-size="12pt" font-family="noto_regular"  y="39">campaign,&#160;</text><text text-decoration="none" x="3.7349999999999994" fill="#4b4b4b" font-size="12pt" font-family="noto_regular"  y="61">hear&#160;</text><text text-decoration="none" x="42.735" fill="#4b4b4b" font-size="12pt" font-family="noto_regular"  y="61">about&#160;</text><text text-decoration="none" x="91.735" fill="#4b4b4b" font-size="12pt" font-family="noto_regular"  y="61">from&#160;</text><text text-decoration="none" x="132.735" fill="#4b4b4b" font-size="12pt" font-family="noto_regular"  y="61">friends</text><text text-decoration="none" x="185.735" fill="#4b4b4b" font-size="10pt" font-family="noto_regular"  y="61"></text></g></g><g id="RRpyfbc7hpB"><g transform="translate(729.9999999999998 229.99999999999991)"><rect x="0" y="0" width="230.00000000000023" height="100.00000000000003" fill="white" stroke="#ffffff" stroke-width="2" stroke-linecap="round" stroke-linejoin="round"/></g><g transform="translate(749.1799999999998, 246.99999999999994) rotate(0, 95.82, 33)" width="191.64" height="66"><text text-decoration="none" x="31.319999999999993" fill="#4b4b4b" font-size="12pt" font-family="lt_regular"  y="17">Conduct&#160;</text><text text-decoration="none" x="96.32" fill="#4b4b4b" font-size="12pt" font-family="lt_regular"  y="17">research,&#160;</text><text text-decoration="none" x="19.319999999999993" fill="#4b4b4b" font-size="12pt" font-family="lt_regular"  y="39">research&#160;</text><text text-decoration="none" x="83.32" fill="#4b4b4b" font-size="12pt" font-family="lt_regular"  y="39">competitors,&#160;</text><text text-decoration="none" x="19.319999999999993" fill="#4b4b4b" font-size="12pt" font-family="lt_regular"  y="61">compare&#160;</text><text text-decoration="none" x="84.32" fill="#4b4b4b" font-size="12pt" font-family="lt_regular"  y="61">features&#160;</text><text text-decoration="none" x="146.32" fill="#4b4b4b" font-size="12pt" font-family="lt_regular"  y="61">and&#160;</text><text text-decoration="none" x="71.82" fill="#4b4b4b" font-size="12pt" font-family="lt_regular"  y="83">pricing</text><text text-decoration="none" x="119.82" fill="#4b4b4b" font-size="10pt" font-family="noto_regular"  y="83"></text></g></g><g id="sygbyyyqQOY"><g transform="translate(999.9999999999998 229.99999999999997)"><rect x="0" y="0" width="230.00000000000023" height="100.00000000000003" fill="white" stroke="#ffffff" stroke-width="2" stroke-linecap="round" stroke-linejoin="round"/></g><g transform="translate(1066.665, 269) rotate(0, 48.335, 11)" width="96.67" height="22"><text text-decoration="none" x="0.33500000000000085" fill="#4b4b4b" font-size="12pt" font-family="lt_regular"  y="17">Use&#160;</text><text text-decoration="none" x="31.335" fill="#4b4b4b" font-size="12pt" font-family="lt_regular"  y="17">Buy&#160;</text><text text-decoration="none" x="62.335" fill="#4b4b4b" font-size="12pt" font-family="lt_regular"  y="17">Now</text><text text-decoration="none" x="96.33500000000001" fill="#4b4b4b" font-size="10pt" font-family="noto_regular"  y="17"></text></g></g><g id="EIcLisIynW8"><g transform="translate(1270 229.99999999999991)"><rect x="0" y="0" width="230.00000000000023" height="100.00000000000003" fill="white" stroke="#ffffff" stroke-width="2" stroke-linecap="round" stroke-linejoin="round"/></g><g transform="translate(1297.675, 246.99999999999994) rotate(0, 87.325, 33)" width="174.65" height="66"><text text-decoration="none" x="28.325000000000003" fill="#4b4b4b" font-size="12pt" font-family="lt_regular"  y="17">Receive&#160;</text><text text-decoration="none" x="86.325" fill="#4b4b4b" font-size="12pt" font-family="lt_regular"  y="17">product,&#160;</text><text text-decoration="none" x="11.325000000000003" fill="#4b4b4b" font-size="12pt" font-family="lt_regular"  y="39">contact&#160;</text><text text-decoration="none" x="69.325" fill="#4b4b4b" font-size="12pt" font-family="lt_regular"  y="39">support,&#160;</text><text text-decoration="none" x="132.325" fill="#4b4b4b" font-size="12pt" font-family="lt_regular"  y="39">read&#160;</text><text text-decoration="none" x="23.825000000000003" fill="#4b4b4b" font-size="12pt" font-family="lt_regular"  y="61">operation&#160;</text><text text-decoration="none" x="95.825" fill="#4b4b4b" font-size="12pt" font-family="lt_regular"  y="61">manual&#160;</text><text text-decoration="none" x="150.825" fill="#4b4b4b" font-size="10pt" font-family="noto_regular"  y="61"></text></g></g><g id="bLBBfVK04js"><g transform="translate(1540.0000000000005 229.99999999999997)"><rect x="0" y="0" width="230.00000000000023" height="100.00000000000003" fill="white" stroke="#ffffff" stroke-width="2" stroke-linecap="round" stroke-linejoin="round"/></g><g transform="translate(1549.5500000000004, 257.995) rotate(0, 105.45, 22.005)" width="210.9" height="44.01"><text text-decoration="none" x="20.450000000000003" fill="#4b4b4b" font-size="12pt" font-family="lt_regular"  y="17">Make&#160;</text><text text-decoration="none" x="63.45" fill="#4b4b4b" font-size="12pt" font-family="lt_regular"  y="17">another&#160;</text><text text-decoration="none" x="122.45" fill="#4b4b4b" font-size="12pt" font-family="lt_regular"  y="17">purchase,&#160;</text><text text-decoration="none" x="0" fill="#4b4b4b" font-size="12pt" font-family="lt_regular"  y="39">share&#160;</text><text text-decoration="none" x="42" fill="#4b4b4b" font-size="12pt" font-family="lt_regular"  y="39">experience&#160;</text><text text-decoration="none" x="122" fill="#4b4b4b" font-size="12pt" font-family="lt_regular"  y="39">with&#160;</text><text text-decoration="none" x="158" fill="#4b4b4b" font-size="12pt" font-family="lt_regular"  y="39">friends&#160;</text><text text-decoration="none" x="211" fill="#4b4b4b" font-size="10pt" font-family="noto_regular"  y="39"></text></g></g><g id="PAmzed0YzW3"><g transform="translate(460 350.00000000000006)"><rect x="0" y="0" width="230.00000000000023" height="100.00000000000003" fill="white" stroke="#ffffff" stroke-width="2" stroke-linecap="round" stroke-linejoin="round"/></g><g transform="translate(483.7400000000001, 378.4950000000001) rotate(0, 91.26, 21.505)" width="182.52" height="43.01"><text text-decoration="none" x="22.760000000000005" fill="#4b4b4b" font-size="12pt" font-family="noto_regular"  y="17">Traditional&#160;</text><text text-decoration="none" x="108.76" fill="#4b4b4b" font-size="12pt" font-family="noto_regular"  y="17">media,&#160;</text><text text-decoration="none" x="11.260000000000005" fill="#4b4b4b" font-size="12pt" font-family="noto_regular"  y="39">social&#160;</text><text text-decoration="none" x="58.260000000000005" fill="#4b4b4b" font-size="12pt" font-family="noto_regular"  y="39">media,&#160;</text><text text-decoration="none" x="113.26" fill="#4b4b4b" font-size="12pt" font-family="noto_regular"  y="39">word&#160;</text><text text-decoration="none" x="156.26" fill="#4b4b4b" font-size="12pt" font-family="noto_regular"  y="39">of&#160;</text><text text-decoration="none" x="63.760000000000005" fill="#4b4b4b" font-size="12pt" font-family="noto_regular"  y="61">mouth&#160;</text><text text-decoration="none" x="118.76" fill="#4b4b4b" font-size="10pt" font-family="noto_regular"  y="61"></text></g></g><g id="AORsgDo7uin"><g transform="translate(190 350)"><rect x="0" y="0" width="230.00000000000023" height="100.00000000000003" fill="rgb(108,107,110)" stroke="#6c6b6e" stroke-width="2" stroke-linecap="round" stroke-linejoin="round" stroke-dasharray="0 0"/></g><g transform="translate(261.2850000000001, 389) rotate(0, 43.715, 11)" width="87.43" height="22"><text text-decoration="none" x="0" fill="#ffffff" font-size="12pt" font-family="lt_regular"  y="17">Touchpoints</text><text text-decoration="none" x="88" fill="#4b4b4b" font-size="10pt" font-family="noto_regular"  y="17"></text></g></g><g id="UQVdWusyJMe"><g transform="translate(190 470)"><rect x="0" y="0" width="230.00000000000023" height="189.99999999999991" fill="rgb(108,107,110)" stroke="#6c6b6e" stroke-width="2" stroke-linecap="round" stroke-linejoin="round" stroke-dasharray="0 0"/></g><g transform="translate(227.67500000000013, 554) rotate(0, 77.325, 11)" width="154.65" height="22"><text text-decoration="none" x="0.32500000000000284" fill="#ffffff" font-size="12pt" font-family="lt_regular"  y="17">Customer&#160;</text><text text-decoration="none" x="73.325" fill="#ffffff" font-size="12pt" font-family="lt_regular"  y="17">Experience&#160;</text><text text-decoration="none" x="154.325" fill="#4b4b4b" font-size="10pt" font-family="noto_regular"  y="17"></text></g></g><g id="jnNJM9FiUN4"><g transform="translate(190.00000000000023 680)"><rect x="0" y="0" width="230.00000000000023" height="100.00000000000003" fill="rgb(108,107,110)" stroke="#6c6b6e" stroke-width="2" stroke-linecap="round" stroke-linejoin="round" stroke-dasharray="0 0"/></g><g transform="translate(289.20000000000033, 719) rotate(0, 15.8, 11)" width="31.6" height="22"><text text-decoration="none" x="0" fill="#ffffff" font-size="12pt" font-family="lt_regular"  y="17">KPIs</text><text text-decoration="none" x="32" fill="#4b4b4b" font-size="10pt" font-family="noto_regular"  y="17"></text></g></g><g id="jN4gwB8WBJo"><g transform="translate(190.00000000000023 799.9999999999998)"><rect x="0" y="0" width="230.00000000000023" height="100.00000000000003" fill="rgb(108,107,110)" stroke="#6c6b6e" stroke-width="2" stroke-linecap="round" stroke-linejoin="round" stroke-dasharray="0 0"/></g><g transform="translate(252.64000000000033, 838.9999999999998) rotate(0, 52.36, 11)" width="104.72" height="22"><text text-decoration="none" x="21.86" fill="#ffffff" font-size="12pt" font-family="lt_regular"  y="17">Business&#160;</text><text text-decoration="none" x="32.36" fill="#ffffff" font-size="12pt" font-family="lt_regular"  y="39">Goals</text><text text-decoration="none" x="72.36" fill="#4b4b4b" font-size="10pt" font-family="noto_regular"  y="39"></text></g></g><g id="arHUat3kaTY"><g transform="translate(190.00000000000023 919.9999999999998)"><rect x="0" y="0" width="230.00000000000023" height="100.00000000000003" fill="rgb(108,107,110)" stroke="#6c6b6e" stroke-width="2" stroke-linecap="round" stroke-linejoin="round" stroke-dasharray="0 0"/></g><g transform="translate(237.85500000000036, 958.9999999999998) rotate(0, 67.145, 11)" width="134.29" height="22"><text text-decoration="none" x="0.644999999999996" fill="#ffffff" font-size="12pt" font-family="lt_regular"  y="17">Responsible&#160;</text><text text-decoration="none" x="88.645" fill="#ffffff" font-size="12pt" font-family="lt_regular"  y="17">Teams</text><text text-decoration="none" x="133.64499999999998" fill="#4b4b4b" font-size="10pt" font-family="noto_regular"  y="17"></text></g></g><g id="mXzUkvQxRtn"><g transform="translate(460 470.0000000000002)"><rect x="0" y="0" width="230.00000000000023" height="189.99999999999991" fill="white" stroke="#ffffff" stroke-width="2" stroke-linecap="round" stroke-linejoin="round"/></g><g transform="translate(518.3100000000002, 555.7500000000002) rotate(0, 56.69, 9.25)" width="113.38" height="18.5"><text text-decoration="none" x="0.6899999999999977" fill="#4b4b4b" font-size="10pt" font-family="lt_regular"  y="17">Interested,&#160;</text><text text-decoration="none" x="66.69" fill="#4b4b4b" font-size="10pt" font-family="lt_regular"  y="17">hesitant</text><text text-decoration="none" x="112.69" fill="#4b4b4b" font-size="10pt" font-family="noto_regular"  y="17"></text></g></g><g id="ZOFHlExSD0Q"><g transform="translate(460 680)"><rect x="0" y="0" width="230.00000000000023" height="100.00000000000003" fill="white" stroke="#ffffff" stroke-width="2" stroke-linecap="round" stroke-linejoin="round"/></g><g transform="translate(505.0750000000001, 719) rotate(0, 69.925, 11)" width="139.85" height="22"><text text-decoration="none" x="22.924999999999997" fill="#4b4b4b" font-size="12pt" font-family="lt_regular"  y="17">Impressions&#160;</text><text text-decoration="none" x="109.925" fill="#4b4b4b" font-size="12pt" font-family="lt_regular"  y="17">/&#160;</text><text text-decoration="none" x="48.925" fill="#4b4b4b" font-size="12pt" font-family="lt_regular"  y="39">Clicks</text><text text-decoration="none" x="90.925" fill="#4b4b4b" font-size="10pt" font-family="noto_regular"  y="39"></text></g></g><g id="uEIdtdEvtA5"><g transform="translate(460 800.0000000000002)"><rect x="0" y="0" width="230.00000000000023" height="100.00000000000003" fill="white" stroke="#ffffff" stroke-width="2" stroke-linecap="round" stroke-linejoin="round"/></g><g transform="translate(506.6800000000001, 839.0000000000002) rotate(0, 68.32, 11)" width="136.64" height="22"><text text-decoration="none" x="0.3199999999999932" fill="#4b4b4b" font-size="12pt" font-family="lt_regular"  y="17">Increase&#160;</text><text text-decoration="none" x="62.31999999999999" fill="#4b4b4b" font-size="12pt" font-family="lt_regular"  y="17">awareness</text><text text-decoration="none" x="136.32" fill="#4b4b4b" font-size="10pt" font-family="noto_regular"  y="17"></text></g></g><g id="TmlwpAB1aXc"><g transform="translate(460 920.0000000000005)"><rect x="0" y="0" width="230.00000000000023" height="100.00000000000003" fill="white" stroke="#ffffff" stroke-width="2" stroke-linecap="round" stroke-linejoin="round"/></g><g transform="translate(514.1550000000001, 959.0000000000005) rotate(0, 60.845, 11)" width="121.69" height="22"><text text-decoration="none" x="37.845" fill="#4b4b4b" font-size="12pt" font-family="lt_regular"  y="17">Digital&#160;</text><text text-decoration="none" x="24.845" fill="#4b4b4b" font-size="12pt" font-family="lt_regular"  y="39">Marketing</text><text text-decoration="none" x="96.845" fill="#4b4b4b" font-size="10pt" font-family="noto_regular"  y="39"></text></g></g><g id="V2HscmbYIcU"><g transform="translate(729.9999999999999 350)"><rect x="0" y="0" width="230.00000000000023" height="100.00000000000003" fill="white" stroke="#ffffff" stroke-width="2" stroke-linecap="round" stroke-linejoin="round"/></g><g transform="translate(757.345, 377.995) rotate(0, 87.655, 22.005)" width="175.31" height="44.01"><text text-decoration="none" x="30.655" fill="#4b4b4b" font-size="12pt" font-family="lt_regular"  y="17">Word&#160;</text><text text-decoration="none" x="75.655" fill="#4b4b4b" font-size="12pt" font-family="lt_regular"  y="17">of&#160;</text><text text-decoration="none" x="94.655" fill="#4b4b4b" font-size="12pt" font-family="lt_regular"  y="17">mouth,&#160;</text><text text-decoration="none" x="13.155000000000001" fill="#4b4b4b" font-size="12pt" font-family="lt_regular"  y="39">website,&#160;</text><text text-decoration="none" x="76.155" fill="#4b4b4b" font-size="12pt" font-family="lt_regular"  y="39">social&#160;</text><text text-decoration="none" x="120.155" fill="#4b4b4b" font-size="12pt" font-family="lt_regular"  y="39">media</text><text text-decoration="none" x="162.155" fill="#4b4b4b" font-size="10pt" font-family="noto_regular"  y="39"></text></g></g><g id="U1gtXgcFM1F"><g transform="translate(729.9999999999995 470)"><rect x="0" y="0" width="230.00000000000023" height="189.99999999999991" fill="white" stroke="#ffffff" stroke-width="2" stroke-linecap="round" stroke-linejoin="round"/></g><g transform="translate(797.9649999999997, 480) rotate(0, 47.035, 0)" width="94.07" height="18.5"><text text-decoration="none" x="1.5349999999999966" fill="#4b4b4b" font-size="10pt" font-family="lt_regular"  y="17">Curious,&#160;</text><text text-decoration="none" x="51.535" fill="#4b4b4b" font-size="10pt" font-family="lt_regular"  y="17">excited</text><text text-decoration="none" x="92.535" fill="#4b4b4b" font-size="10pt" font-family="noto_regular"  y="17"></text></g></g><g id="ESpiSJ5y0i6"><g transform="translate(730.0000000000005 680)"><rect x="0" y="0" width="230.00000000000023" height="100.00000000000003" fill="white" stroke="#ffffff" stroke-width="2" stroke-linecap="round" stroke-linejoin="round"/></g><g transform="translate(777.0500000000005, 719) rotate(0, 67.95, 11)" width="135.9" height="22"><text text-decoration="none" x="0" fill="#4b4b4b" font-size="12pt" font-family="lt_regular"  y="17">New&#160;</text><text text-decoration="none" x="37" fill="#4b4b4b" font-size="12pt" font-family="lt_regular"  y="17">website&#160;</text><text text-decoration="none" x="96" fill="#4b4b4b" font-size="12pt" font-family="lt_regular"  y="17">visits&#160;</text><text text-decoration="none" x="136" fill="#4b4b4b" font-size="10pt" font-family="noto_regular"  y="17"></text></g></g><g id="hsgOs17WZCx"><g transform="translate(730.0000000000005 800.0000000000002)"><rect x="0" y="0" width="230.00000000000023" height="100.00000000000003" fill="white" stroke="#ffffff" stroke-width="2" stroke-linecap="round" stroke-linejoin="round"/></g><g transform="translate(758.9550000000006, 839.0000000000002) rotate(0, 86.045, 11)" width="172.09" height="22"><text text-decoration="none" x="0.045000000000001705" fill="#4b4b4b" font-size="12pt" font-family="lt_regular"  y="17">Increase&#160;</text><text text-decoration="none" x="62.045" fill="#4b4b4b" font-size="12pt" font-family="lt_regular"  y="17">website&#160;</text><text text-decoration="none" x="121.045" fill="#4b4b4b" font-size="12pt" font-family="lt_regular"  y="17">visitors</text><text text-decoration="none" x="172.04500000000002" fill="#4b4b4b" font-size="10pt" font-family="noto_regular"  y="17"></text></g></g><g id="kfbjQragTmk"><g transform="translate(730.0000000000005 920.0000000000005)"><rect x="0" y="0" width="230.00000000000023" height="100.00000000000003" fill="white" stroke="#ffffff" stroke-width="2" stroke-linecap="round" stroke-linejoin="round"/></g><g transform="translate(762.4100000000005, 959.0000000000005) rotate(0, 82.59, 11)" width="165.18" height="22"><text text-decoration="none" x="19.590000000000003" fill="#4b4b4b" font-size="12pt" font-family="lt_regular"  y="17">Digital&#160;</text><text text-decoration="none" x="69.59" fill="#4b4b4b" font-size="12pt" font-family="lt_regular"  y="17">Marketing,&#160;</text><text text-decoration="none" x="64.59" fill="#4b4b4b" font-size="12pt" font-family="lt_regular"  y="39">Sales</text><text text-decoration="none" x="100.59" fill="#4b4b4b" font-size="10pt" font-family="noto_regular"  y="39"></text></g></g><g id="ujs9NmOVU1O"><g transform="translate(999.9999999999999 350)"><rect x="0" y="0" width="230.00000000000023" height="100.00000000000003" fill="white" stroke="#ffffff" stroke-width="2" stroke-linecap="round" stroke-linejoin="round"/></g><g transform="translate(1017.0699999999999, 389) rotate(0, 97.93, 11)" width="195.86" height="22"><text text-decoration="none" x="23.930000000000007" fill="#4b4b4b" font-size="12pt" font-family="lt_regular"  y="17">Website,&#160;</text><text text-decoration="none" x="90.93" fill="#4b4b4b" font-size="12pt" font-family="lt_regular"  y="17">mobile&#160;</text><text text-decoration="none" x="141.93" fill="#4b4b4b" font-size="12pt" font-family="lt_regular"  y="17">app,&#160;</text><text text-decoration="none" x="75.93" fill="#4b4b4b" font-size="12pt" font-family="lt_regular"  y="39">phone</text><text text-decoration="none" x="119.93" fill="#4b4b4b" font-size="10pt" font-family="noto_regular"  y="39"></text></g></g><g id="ZFhlMmvWvIp"><g transform="translate(1000.0000000000005 470)"><rect x="0" y="0" width="230.00000000000023" height="189.99999999999991" fill="white" stroke="#ffffff" stroke-width="2" stroke-linecap="round" stroke-linejoin="round"/></g><g transform="translate(1093.4200000000005, 555.75) rotate(0, 21.58, 9.25)" width="43.16" height="18.5"><text text-decoration="none" x="0.5799999999999983" fill="#4b4b4b" font-size="10pt" font-family="lt_regular"  y="17">Excited</text><text text-decoration="none" x="42.58" fill="#4b4b4b" font-size="10pt" font-family="noto_regular"  y="17"></text></g></g><g id="KY7Gden9rAN"><g transform="translate(1000 680)"><rect x="0" y="0" width="230.00000000000023" height="100.00000000000003" fill="white" stroke="#ffffff" stroke-width="2" stroke-linecap="round" stroke-linejoin="round"/></g><g transform="translate(1012.565, 719) rotate(0, 102.435, 11)" width="204.87" height="22"><text text-decoration="none" x="0" fill="#4b4b4b" font-size="12pt" font-family="lt_regular"  y="17">Conversion&#160;</text><text text-decoration="none" x="84" fill="#4b4b4b" font-size="12pt" font-family="lt_regular"  y="17">rate,&#160;</text><text text-decoration="none" x="120" fill="#4b4b4b" font-size="12pt" font-family="lt_regular"  y="17">online&#160;</text><text text-decoration="none" x="167" fill="#4b4b4b" font-size="12pt" font-family="lt_regular"  y="17">sales&#160;</text><text text-decoration="none" x="205" fill="#4b4b4b" font-size="10pt" font-family="noto_regular"  y="17"></text></g></g><g id="PbOoAeooBdu"><g transform="translate(1000.0000000000005 800.0000000000002)"><rect x="0" y="0" width="230.00000000000023" height="100.00000000000003" fill="white" stroke="#ffffff" stroke-width="2" stroke-linecap="round" stroke-linejoin="round"/></g><g transform="translate(1027.1350000000004, 839.0000000000002) rotate(0, 87.865, 11)" width="175.73" height="22"><text text-decoration="none" x="0.3649999999999949" fill="#4b4b4b" font-size="12pt" font-family="lt_regular"  y="17">Increase&#160;</text><text text-decoration="none" x="62.364999999999995" fill="#4b4b4b" font-size="12pt" font-family="lt_regular"  y="17">conversion&#160;</text><text text-decoration="none" x="143.365" fill="#4b4b4b" font-size="12pt" font-family="lt_regular"  y="17">rate&#160;</text><text text-decoration="none" x="175.365" fill="#4b4b4b" font-size="10pt" font-family="noto_regular"  y="17"></text></g></g><g id="nuLmOaVhpYP"><g transform="translate(1000.0000000000005 920.0000000000005)"><rect x="0" y="0" width="230.00000000000023" height="100.00000000000003" fill="white" stroke="#ffffff" stroke-width="2" stroke-linecap="round" stroke-linejoin="round"/></g><g transform="translate(1031.4450000000004, 947.9950000000005) rotate(0, 83.555, 22.005)" width="167.11" height="44.01"><text text-decoration="none" x="38.55500000000001" fill="#4b4b4b" font-size="12pt" font-family="lt_regular"  y="17">Sales,&#160;</text><text text-decoration="none" x="82.555" fill="#4b4b4b" font-size="12pt" font-family="lt_regular"  y="17">Digital&#160;</text><text text-decoration="none" x="11.555000000000007" fill="#4b4b4b" font-size="12pt" font-family="lt_regular"  y="39">marketing,&#160;</text><text text-decoration="none" x="89.555" fill="#4b4b4b" font-size="12pt" font-family="lt_regular"  y="39">customer&#160;</text><text text-decoration="none" x="59.05500000000001" fill="#4b4b4b" font-size="12pt" font-family="lt_regular"  y="61">service</text><text text-decoration="none" x="108.055" fill="#4b4b4b" font-size="10pt" font-family="noto_regular"  y="61"></text></g></g><g id="t6aBW111V6J"><g transform="translate(1270.0000000000005 350)"><rect x="0" y="0" width="230.00000000000023" height="100.00000000000003" fill="white" stroke="#ffffff" stroke-width="2" stroke-linecap="round" stroke-linejoin="round"/></g><g transform="translate(1309.2250000000004, 389) rotate(0, 75.775, 11)" width="151.55" height="22"><text text-decoration="none" x="19.775000000000006" fill="#4b4b4b" font-size="12pt" font-family="lt_regular"  y="17">Phone,&#160;</text><text text-decoration="none" x="72.775" fill="#4b4b4b" font-size="12pt" font-family="lt_regular"  y="17">chatbot,&#160;</text><text text-decoration="none" x="57.275000000000006" fill="#4b4b4b" font-size="12pt" font-family="lt_regular"  y="39">email</text><text text-decoration="none" x="94.275" fill="#4b4b4b" font-size="10pt" font-family="noto_regular"  y="39"></text></g></g><g id="YcvWeGILn7i"><g transform="translate(1270.0000000000005 470.0000000000002)"><rect x="0" y="0" width="230.00000000000023" height="189.99999999999991" fill="white" stroke="#ffffff" stroke-width="2" stroke-linecap="round" stroke-linejoin="round"/></g><g transform="translate(1354.4450000000004, 480.0000000000002) rotate(0, 30.555, 0)" width="61.11" height="18.5"><text text-decoration="none" x="0.5549999999999997" fill="#4b4b4b" font-size="10pt" font-family="lt_regular"  y="17">Frustrated</text><text text-decoration="none" x="60.555" fill="#4b4b4b" font-size="10pt" font-family="noto_regular"  y="17"></text></g></g><g id="O1lKxAsccki"><g transform="translate(1270.0000000000005 680.0000000000007)"><rect x="0" y="0" width="230.00000000000023" height="100.00000000000003" fill="white" stroke="#ffffff" stroke-width="2" stroke-linecap="round" stroke-linejoin="round"/></g><g transform="translate(1286.1250000000005, 697.0000000000007) rotate(0, 98.875, 33)" width="197.75" height="66"><text text-decoration="none" x="4.375" fill="#4b4b4b" font-size="12pt" font-family="lt_regular"  y="17">Product&#160;</text><text text-decoration="none" x="65.375" fill="#4b4b4b" font-size="12pt" font-family="lt_regular"  y="17">reviews,&#160;</text><text text-decoration="none" x="127.375" fill="#4b4b4b" font-size="12pt" font-family="lt_regular"  y="17">customer&#160;</text><text text-decoration="none" x="27.375" fill="#4b4b4b" font-size="12pt" font-family="lt_regular"  y="39">service&#160;</text><text text-decoration="none" x="80.375" fill="#4b4b4b" font-size="12pt" font-family="lt_regular"  y="39">success&#160;</text><text text-decoration="none" x="138.375" fill="#4b4b4b" font-size="12pt" font-family="lt_regular"  y="39">rate,&#160;</text><text text-decoration="none" x="55.375" fill="#4b4b4b" font-size="12pt" font-family="lt_regular"  y="61">waiting&#160;</text><text text-decoration="none" x="111.375" fill="#4b4b4b" font-size="12pt" font-family="lt_regular"  y="61">time</text><text text-decoration="none" x="142.375" fill="#4b4b4b" font-size="10pt" font-family="noto_regular"  y="61"></text></g></g><g id="gusvJRiCbK9"><g transform="translate(1270.0000000000005 800.0000000000002)"><rect x="0" y="0" width="230.00000000000023" height="100.00000000000003" fill="white" stroke="#ffffff" stroke-width="2" stroke-linecap="round" stroke-linejoin="round"/></g><g transform="translate(1294.0750000000005, 827.9950000000002) rotate(0, 90.925, 22.005)" width="181.85" height="44.01"><text text-decoration="none" x="0.42499999999999716" fill="#4b4b4b" font-size="12pt" font-family="lt_regular"  y="17">Increase&#160;</text><text text-decoration="none" x="62.425" fill="#4b4b4b" font-size="12pt" font-family="lt_regular"  y="17">customer&#160;</text><text text-decoration="none" x="132.425" fill="#4b4b4b" font-size="12pt" font-family="lt_regular"  y="17">service&#160;</text><text text-decoration="none" x="47.925" fill="#4b4b4b" font-size="12pt" font-family="lt_regular"  y="39">satisfaction&#160;</text><text text-decoration="none" x="133.925" fill="#4b4b4b" font-size="10pt" font-family="noto_regular"  y="39"></text></g></g><g id="Ta6NklEcJFa"><g transform="translate(1270.0000000000005 920.0000000000005)"><rect x="0" y="0" width="230.00000000000023" height="100.00000000000003" fill="white" stroke="#ffffff" stroke-width="2" stroke-linecap="round" stroke-linejoin="round"/></g><g transform="translate(1323.9000000000005, 959.0000000000005) rotate(0, 61.1, 11)" width="122.2" height="22"><text text-decoration="none" x="0.10000000000000142" fill="#4b4b4b" font-size="12pt" font-family="lt_regular"  y="17">Customer&#160;</text><text text-decoration="none" x="73.1" fill="#4b4b4b" font-size="12pt" font-family="lt_regular"  y="17">service</text><text text-decoration="none" x="122.1" fill="#4b4b4b" font-size="10pt" font-family="noto_regular"  y="17"></text></g></g><g id="ik2vZdGfe8F"><g transform="translate(1539.9999999999995 350)"><rect x="0" y="0" width="230.00000000000023" height="100.00000000000003" fill="white" stroke="#ffffff" stroke-width="2" stroke-linecap="round" stroke-linejoin="round"/></g><g transform="translate(1551.9899999999996, 377.995) rotate(0, 103.01, 22.005)" width="206.02" height="44.01"><text text-decoration="none" x="24.010000000000005" fill="#4b4b4b" font-size="12pt" font-family="lt_regular"  y="17">Word&#160;</text><text text-decoration="none" x="69.01" fill="#4b4b4b" font-size="12pt" font-family="lt_regular"  y="17">of&#160;</text><text text-decoration="none" x="88.01" fill="#4b4b4b" font-size="12pt" font-family="lt_regular"  y="17">mouth,&#160;</text><text text-decoration="none" x="142.01" fill="#4b4b4b" font-size="12pt" font-family="lt_regular"  y="17">social&#160;</text><text text-decoration="none" x="36.510000000000005" fill="#4b4b4b" font-size="12pt" font-family="lt_regular"  y="39">media,&#160;</text><text text-decoration="none" x="86.51" fill="#4b4b4b" font-size="12pt" font-family="lt_regular"  y="39">review&#160;</text><text text-decoration="none" x="137.51" fill="#4b4b4b" font-size="12pt" font-family="lt_regular"  y="39">sites</text><text text-decoration="none" x="169.51" fill="#4b4b4b" font-size="10pt" font-family="noto_regular"  y="39"></text></g></g><g id="oazjFxzIYj3"><g transform="translate(1539.9999999999995 470.0000000000002)"><rect x="0" y="0" width="230.00000000000023" height="189.99999999999991" fill="white" stroke="#ffffff" stroke-width="2" stroke-linecap="round" stroke-linejoin="round"/></g><g transform="translate(1605.6749999999995, 480.0000000000002) rotate(0, 49.325, 0)" width="98.65" height="18.5"><text text-decoration="none" x="1.8250000000000028" fill="#4b4b4b" font-size="10pt" font-family="lt_regular"  y="17">Satisfied,&#160;</text><text text-decoration="none" x="55.825" fill="#4b4b4b" font-size="10pt" font-family="lt_regular"  y="17">excited</text><text text-decoration="none" x="96.825" fill="#4b4b4b" font-size="10pt" font-family="noto_regular"  y="17"></text></g></g><g id="LkfHlU9HiOw"><g transform="translate(1539.9999999999995 680.0000000000007)"><rect x="0" y="0" width="230.00000000000023" height="100.00000000000003" fill="white" stroke="#ffffff" stroke-width="2" stroke-linecap="round" stroke-linejoin="round"/></g><g transform="translate(1553.6749999999995, 707.9950000000007) rotate(0, 101.325, 22.005)" width="202.65" height="44.01"><text text-decoration="none" x="0.8250000000000028" fill="#4b4b4b" font-size="12pt" font-family="lt_regular"  y="17">Customer&#160;</text><text text-decoration="none" x="73.825" fill="#4b4b4b" font-size="12pt" font-family="lt_regular"  y="17">satisfaction&#160;</text><text text-decoration="none" x="159.825" fill="#4b4b4b" font-size="12pt" font-family="lt_regular"  y="17">score,&#160;</text><text text-decoration="none" x="101.325" fill="#4b4b4b" font-size="12pt" font-family="lt_regular"  y="39"></text><text text-decoration="none" x="52.825" fill="#4b4b4b" font-size="12pt" font-family="lt_regular"  y="61">retention&#160;</text><text text-decoration="none" x="121.825" fill="#4b4b4b" font-size="12pt" font-family="lt_regular"  y="61">rate</text><text text-decoration="none" x="149.825" fill="#4b4b4b" font-size="10pt" font-family="noto_regular"  y="61"></text></g></g><g id="8XiVUM768A6"><g transform="translate(1539.9999999999995 800.0000000000002)"><rect x="0" y="0" width="230.00000000000023" height="100.00000000000003" fill="white" stroke="#ffffff" stroke-width="2" stroke-linecap="round" stroke-linejoin="round"/></g><g transform="translate(1563.5149999999996, 839.0000000000002) rotate(0, 91.485, 11)" width="182.97" height="22"><text text-decoration="none" x="0.48499999999999943" fill="#4b4b4b" font-size="12pt" font-family="lt_regular"  y="17">Generate&#160;</text><text text-decoration="none" x="69.485" fill="#4b4b4b" font-size="12pt" font-family="lt_regular"  y="17">positive&#160;</text><text text-decoration="none" x="128.485" fill="#4b4b4b" font-size="12pt" font-family="lt_regular"  y="17">reviews</text><text text-decoration="none" x="182.485" fill="#4b4b4b" font-size="10pt" font-family="noto_regular"  y="17"></text></g></g><g id="UubV7zaF3yB"><g transform="translate(1539.9999999999995 920.0000000000005)"><rect x="0" y="0" width="230.00000000000023" height="100.00000000000003" fill="white" stroke="#ffffff" stroke-width="2" stroke-linecap="round" stroke-linejoin="round"/></g><g transform="translate(1592.0849999999996, 959.0000000000005) rotate(0, 62.915, 11)" width="125.83" height="22"><text text-decoration="none" x="28.415" fill="#4b4b4b" font-size="12pt" font-family="lt_regular"  y="17">Customer&#160;</text><text text-decoration="none" x="36.415" fill="#4b4b4b" font-size="12pt" font-family="lt_regular"  y="39">service,</text><text text-decoration="none" x="89.41499999999999" fill="#4b4b4b" font-size="10pt" font-family="noto_regular"  y="39"></text></g></g><g id="v0uG4bCSuLU"><g transform="translate(540 590)"><rect x="0" y="0" width="60.000000000130605" height="59.99999999999998" fill="rgba(255,255,255,0.01)" stroke="rgba(255,255,255,0.01)"/><path d="M 0,0 L 60.000000000130605,0 L 60.000000000130605,59.99999999999998 L 0,59.99999999999998 L 0,0 Z" fill="rgba(255,255,255,0.01)" stroke="rgba(255,255,255,0.01)"/><path d="M 30.000000000065302,9.999999999999996 C 18.95000000004125,9.999999999999996 10.000000000021767,18.949999999999992 10.000000000021767,29.99999999999999 C 10.000000000021767,41.04999999999999 18.95000000004125,49.999999999999986 30.000000000065302,49.999999999999986 C 41.05000000008936,49.999999999999986 50.00000000010884,41.04999999999999 50.00000000010884,29.99999999999999 C 50.00000000010884,18.94999999999999 41.05000000008936,9.999999999999996 30.000000000065302,9.999999999999996 Z M 17.500000000038092,23.749999999999993 C 17.500000000038092,21.674999999999994 19.175000000041738,19.999999999999993 21.250000000046256,19.999999999999993 C 23.32500000005077,19.999999999999993 25.00000000005442,21.674999999999994 25.00000000005442,23.749999999999993 C 25.00000000005442,25.824999999999992 23.32500000005077,27.49999999999999 21.250000000046256,27.49999999999999 C 19.175000000041738,27.49999999999999 17.500000000038092,25.824999999999992 17.500000000038092,23.749999999999993 Z M 37.50000000008163,38.749999999999986 L 22.500000000048978,38.749999999999986 L 22.500000000048978,34.999999999999986 L 37.50000000008163,34.999999999999986 L 37.50000000008163,38.749999999999986 Z M 38.75000000008435,27.49999999999999 C 36.675000000079834,27.49999999999999 35.000000000076184,25.824999999999992 35.000000000076184,23.749999999999993 C 35.000000000076184,21.674999999999994 36.675000000079834,19.999999999999993 38.75000000008435,19.999999999999993 C 40.82500000008886,19.999999999999993 42.50000000009251,21.674999999999994 42.50000000009251,23.749999999999993 C 42.50000000009251,25.824999999999992 40.82500000008886,27.49999999999999 38.75000000008435,27.49999999999999 Z" fill="rgba(0, 0, 0, 0.3)" stroke="rgba(255,255,255,0.01)"/><path d="M 22.500000000048978,34.999999999999986 L 37.50000000008163,34.999999999999986 L 37.50000000008163,38.749999999999986 L 22.500000000048978,38.749999999999986 Z" fill="rgb(0, 0, 0)" stroke="rgba(255,255,255,0.01)"/><path d="M 35.000000000076184,23.749999999999993 C 35.000000000076184,26.63675134594812 38.12500000008299,28.4409709371657 40.62500000008843,26.997595264191634 C 41.785254037935346,26.32772228311383 42.50000000009251,25.089745962155604 42.50000000009251,23.749999999999993 C 42.50000000009251,20.863248654051862 39.37500000008571,19.059029062834284 36.87500000008027,20.502404735808348 C 35.71474596223335,21.17227771688615 35.000000000076184,22.410254037844382 35.000000000076184,23.749999999999993" fill="rgb(0, 0, 0)" stroke="rgba(255,255,255,0.01)"/><path d="M 17.500000000038092,23.749999999999993 C 17.500000000038092,26.63675134594812 20.625000000044896,28.4409709371657 23.12500000005034,26.997595264191634 C 24.28525403789725,26.32772228311383 25.00000000005442,25.089745962155604 25.00000000005442,23.749999999999993 C 25.00000000005442,20.863248654051862 21.875000000047617,19.059029062834284 19.375000000042174,20.502404735808348 C 18.21474596219526,21.17227771688615 17.500000000038092,22.410254037844382 17.500000000038092,23.749999999999993" fill="rgb(0, 0, 0)" stroke="rgba(255,255,255,0.01)"/><path d="M 29.975000000065247,4.999999999999998 C 16.175000000035208,4.999999999999998 5.000000000010884,16.199999999999996 5.000000000010884,29.99999999999999 C 5.000000000010884,43.79999999999998 16.175000000035208,54.99999999999998 29.975000000065247,54.99999999999998 C 43.80000000009534,54.99999999999998 55.00000000011972,43.79999999999998 55.00000000011972,29.99999999999999 C 55.00000000011972,16.199999999999996 43.80000000009534,4.999999999999998 29.975000000065247,4.999999999999998 Z M 30.000000000065302,49.999999999999986 C 18.95000000004125,49.999999999999986 10.000000000021767,41.04999999999999 10.000000000021767,29.99999999999999 C 10.000000000021767,18.94999999999999 18.95000000004125,9.999999999999996 30.000000000065302,9.999999999999996 C 41.05000000008936,9.999999999999996 50.00000000010884,18.949999999999992 50.00000000010884,29.99999999999999 C 50.00000000010884,41.04999999999999 41.05000000008936,49.999999999999986 30.000000000065302,49.999999999999986 Z" fill="rgb(0, 0, 0)" stroke="rgba(255,255,255,0.01)"/></g><g transform="translate(570.0000000000653, 660) rotate(0, 0, 0)" width="0" height="36"><text text-decoration="none" x="0" fill="#4b4b4b" font-size="10pt" font-family="noto_regular"  y="17"></text></g></g><g id="9rQSSFCNbrx"><g transform="translate(810 540)"><rect x="0" y="0" width="59.99999999994263" height="60.00000000003969" fill="rgba(255,255,255,0.01)" stroke="rgba(255,255,255,0.01)"/><path d="M 0,0 L 59.99999999994263,0 L 59.99999999994263,60.00000000003969 L 0,60.00000000003969 L 0,0 Z" fill="rgba(255,255,255,0.01)" stroke="rgba(255,255,255,0.01)"/><path d="M 29.999999999971315,10.000000000006615 C 18.94999999998188,10.000000000006615 9.999999999990438,18.950000000012537 9.999999999990438,30.000000000019845 C 9.999999999990438,41.05000000002716 18.94999999998188,50.000000000033076 29.999999999971315,50.000000000033076 C 41.049999999960754,50.000000000033076 49.99999999995219,41.05000000002716 49.99999999995219,30.000000000019845 C 49.99999999995219,18.95000000001253 41.049999999960754,10.000000000006615 29.999999999971315,10.000000000006615 Z M 38.749999999962945,20.00000000001323 C 40.82499999996096,20.00000000001323 42.499999999959364,21.67500000001434 42.499999999959364,23.75000000001571 C 42.499999999959364,25.825000000017084 40.82499999996096,27.50000000001819 38.749999999962945,27.50000000001819 C 36.67499999996493,27.50000000001819 34.99999999996653,25.825000000017084 34.99999999996653,23.75000000001571 C 34.99999999996653,21.67500000001434 36.67499999996493,20.00000000001323 38.749999999962945,20.00000000001323 Z M 21.249999999979682,20.00000000001323 C 23.324999999977695,20.00000000001323 24.999999999976094,21.67500000001434 24.999999999976094,23.75000000001571 C 24.999999999976094,25.825000000017084 23.324999999977695,27.50000000001819 21.249999999979682,27.50000000001819 C 19.174999999981665,27.50000000001819 17.499999999983267,25.825000000017084 17.499999999983267,23.75000000001571 C 17.499999999983267,21.67500000001434 19.174999999981665,20.00000000001323 21.249999999979682,20.00000000001323 Z M 29.999999999971315,43.75000000002894 C 24.174999999976883,43.75000000002894 19.19999999998164,40.125000000026546 17.199999999983554,35.00000000002315 L 21.37499999997956,35.00000000002315 C 23.124999999977888,37.97500000002512 26.299999999974855,40.00000000002646 29.999999999971315,40.00000000002646 C 33.69999999996777,40.00000000002646 36.87499999996474,37.97500000002512 38.624999999963066,35.00000000002315 L 42.79999999995907,35.00000000002315 C 40.79999999996098,40.125000000026546 35.82499999996574,43.75000000002894 29.999999999971305,43.75000000002894 Z" fill="rgba(0, 0, 0, 0.3)" stroke="rgba(255,255,255,0.01)"/><path d="M 34.99999999996653,23.75000000001571 C 34.99999999996653,26.636751345965752 38.12499999996354,28.440970937184524 40.624999999961155,26.997595264209505 C 41.785254037804435,26.32772228313125 42.499999999959364,25.08974596217221 42.499999999959364,23.75000000001571 C 42.499999999959364,20.86324865406567 39.37499999996235,19.0590290628469 36.87499999996474,20.50240473582192 C 35.71474596212146,21.172277716900165 34.99999999996653,22.410254037859215 34.99999999996653,23.75000000001571" fill="rgb(0, 0, 0)" stroke="rgba(255,255,255,0.01)"/><path d="M 17.499999999983267,23.75000000001571 C 17.499999999983267,26.636751345965752 20.62499999998028,28.440970937184524 23.124999999977888,26.997595264209505 C 24.285254037821165,26.32772228313125 24.999999999976094,25.08974596217221 24.999999999976094,23.75000000001571 C 24.999999999976094,20.86324865406567 21.87499999997908,19.0590290628469 19.374999999981473,20.50240473582192 C 18.214745962138196,21.172277716900165 17.499999999983267,22.410254037859215 17.499999999983267,23.75000000001571" fill="rgb(0, 0, 0)" stroke="rgba(255,255,255,0.01)"/><path d="M 29.999999999971315,40.00000000002646 C 26.29999999997485,40.00000000002646 23.124999999977888,37.97500000002512 21.37499999997956,35.00000000002315 L 17.199999999983554,35.00000000002315 C 21.039668680273795,44.85344459324152 34.10612827231902,46.85528419313057 40.71962726466963,38.60331127726919 C 41.59200990538032,37.514798535112774 42.293511633265425,36.2997618997786 42.79999999995908,35.00000000002315 L 38.624999999963066,35.00000000002315 C 36.87499999996474,37.97500000002512 33.69999999996778,40.00000000002646 29.999999999971315,40.00000000002646 Z M 29.974999999971338,5.000000000003308 C 16.174999999984532,5.000000000003308 4.999999999995219,16.200000000010718 4.999999999995219,30.000000000019845 C 4.999999999995219,43.80000000002897 16.174999999984532,55.00000000003638 29.974999999971338,55.00000000003638 C 43.79999999995812,55.00000000003638 54.999999999947406,43.80000000002897 54.999999999947406,30.000000000019845 C 54.999999999947406,16.200000000010718 43.79999999995812,5.000000000003308 29.974999999971338,5.000000000003308 Z M 29.999999999971315,50.000000000033076 C 18.94999999998188,50.000000000033076 9.999999999990438,41.05000000002716 9.999999999990438,30.000000000019845 C 9.999999999990438,18.95000000001253 18.94999999998188,10.000000000006615 29.999999999971315,10.000000000006615 C 41.049999999960754,10.000000000006615 49.99999999995219,18.950000000012537 49.99999999995219,30.000000000019845 C 49.99999999995219,41.05000000002716 41.049999999960754,50.000000000033076 29.999999999971315,50.000000000033076 Z" fill="rgb(0, 0, 0)" stroke="rgba(255,255,255,0.01)"/></g><g transform="translate(839.9999999999714, 610.0000000000397) rotate(0, 0, 0)" width="0" height="36"><text text-decoration="none" x="0" fill="#4b4b4b" font-size="10pt" font-family="noto_regular"  y="17"></text></g></g><g id="oHBXumfoXHs"><g transform="translate(1080 479.99999999999994)"><rect x="0" y="0" width="60.00000000000023" height="59.99999999999997" fill="rgba(255,255,255,0.01)" stroke="rgba(255,255,255,0.01)"/><path d="M 0,0 L 60.00000000000023,0 L 60.00000000000023,59.99999999999997 L 0,59.99999999999997 L 0,0 Z" fill="rgba(255,255,255,0.01)" stroke="rgba(255,255,255,0.01)"/><path d="M 30.000000000000114,9.999999999999995 C 18.95000000000007,9.999999999999995 10.000000000000037,18.94999999999999 10.000000000000037,29.999999999999986 C 10.000000000000037,41.04999999999998 18.95000000000007,49.99999999999997 30.000000000000114,49.99999999999997 C 41.05000000000016,49.99999999999997 50.000000000000185,41.04999999999998 50.000000000000185,29.999999999999986 C 50.000000000000185,18.949999999999985 41.05000000000016,9.999999999999995 30.000000000000114,9.999999999999995 Z M 38.75000000000014,19.99999999999999 C 40.825000000000145,19.99999999999999 42.500000000000156,21.674999999999986 42.500000000000156,23.749999999999986 C 42.500000000000156,25.824999999999985 40.825000000000145,27.499999999999986 38.75000000000014,27.499999999999986 C 36.67500000000014,27.499999999999986 35.00000000000013,25.824999999999985 35.00000000000013,23.749999999999986 C 35.00000000000013,21.674999999999986 36.67500000000014,19.99999999999999 38.75000000000014,19.99999999999999 Z M 21.250000000000078,19.99999999999999 C 23.325000000000088,19.99999999999999 25.000000000000092,21.674999999999986 25.000000000000092,23.749999999999986 C 25.000000000000092,25.824999999999985 23.325000000000088,27.499999999999986 21.250000000000078,27.499999999999986 C 19.17500000000007,27.499999999999986 17.500000000000064,25.824999999999985 17.500000000000064,23.749999999999986 C 17.500000000000064,21.674999999999986 19.17500000000007,19.99999999999999 21.250000000000078,19.99999999999999 Z M 30.000000000000114,43.74999999999998 C 24.17500000000009,43.74999999999998 19.225000000000072,40.09999999999997 17.225000000000062,34.99999999999998 L 42.775000000000155,34.99999999999998 C 40.77500000000015,40.09999999999997 35.82500000000013,43.74999999999998 30.000000000000114,43.74999999999998 Z" fill="rgba(0, 0, 0, 0.3)" stroke="rgba(255,255,255,0.01)"/><path d="M 17.500000000000064,23.749999999999986 C 17.500000000000064,26.636751345948117 20.625000000000078,28.440970937165694 23.125000000000085,26.99759526419163 C 24.285254037844478,26.327722283113822 25.000000000000092,25.089745962155597 25.000000000000092,23.749999999999986 C 25.000000000000092,20.86324865405186 21.87500000000008,19.05902906283428 19.37500000000007,20.502404735808344 C 18.21474596215568,21.172277716886146 17.500000000000064,22.410254037844375 17.500000000000064,23.749999999999986" fill="rgb(0, 0, 0)" stroke="rgba(255,255,255,0.01)"/><path d="M 29.97500000000011,4.999999999999997 C 16.17500000000006,4.999999999999997 5.000000000000019,16.199999999999992 5.000000000000019,29.999999999999986 C 5.000000000000019,43.799999999999976 16.17500000000006,54.99999999999997 29.97500000000011,54.99999999999997 C 43.80000000000016,54.99999999999997 55.000000000000206,43.799999999999976 55.000000000000206,29.999999999999986 C 55.000000000000206,16.199999999999992 43.80000000000016,4.999999999999997 29.97500000000011,4.999999999999997 Z M 30.000000000000114,49.99999999999997 C 18.95000000000007,49.99999999999997 10.000000000000037,41.04999999999998 10.000000000000037,29.999999999999986 C 10.000000000000037,18.949999999999985 18.95000000000007,9.999999999999995 30.000000000000114,9.999999999999995 C 41.05000000000016,9.999999999999995 50.000000000000185,18.94999999999999 50.000000000000185,29.999999999999986 C 50.000000000000185,41.04999999999998 41.05000000000016,49.99999999999997 30.000000000000114,49.99999999999997 Z" fill="rgb(0, 0, 0)" stroke="rgba(255,255,255,0.01)"/><path d="M 35.00000000000013,23.749999999999986 C 35.00000000000013,26.636751345948117 38.12500000000014,28.440970937165694 40.62500000000015,26.99759526419163 C 41.785254037844545,26.327722283113822 42.500000000000156,25.089745962155597 42.500000000000156,23.749999999999986 C 42.500000000000156,20.86324865405186 39.37500000000015,19.05902906283428 36.875000000000135,20.502404735808344 C 35.714745962155746,21.172277716886146 35.00000000000013,22.410254037844375 35.00000000000013,23.749999999999986" fill="rgb(0, 0, 0)" stroke="rgba(255,255,255,0.01)"/><path d="M 30.000000000000114,43.74999999999998 C 35.82500000000013,43.74999999999998 40.77500000000015,40.09999999999997 42.775000000000155,34.99999999999998 L 17.225000000000062,34.99999999999998 C 19.22500000000007,40.09999999999997 24.17500000000009,43.74999999999998 30.000000000000114,43.74999999999998 Z" fill="rgb(0, 0, 0)" stroke="rgba(255,255,255,0.01)"/></g><g transform="translate(1110, 549.9999999999999) rotate(0, 0, 0)" width="0" height="36"><text text-decoration="none" x="0" fill="#4b4b4b" font-size="10pt" font-family="noto_regular"  y="14"></text><text text-decoration="none" x="0" fill="#4b4b4b" font-size="10pt" font-family="noto_regular"  y="36"></text></g></g><g id="KT5yZPK3U4O"><g transform="translate(1350 590)"><rect x="0" y="0" width="60.000000000001165" height="60.00000000000503" fill="rgba(255,255,255,0.01)" stroke="rgba(255,255,255,0.01)"/><path d="M 0,0 L 60.000000000001165,0 L 60.000000000001165,60.00000000000503 L 0,60.00000000000503 L 0,0 Z" fill="rgba(255,255,255,0.01)" stroke="rgba(255,255,255,0.01)"/><path d="M 30.000000000000583,10.000000000000838 C 18.95000000000037,10.000000000000838 10.000000000000194,18.950000000001587 10.000000000000194,30.000000000002515 C 10.000000000000194,41.05000000000344 18.95000000000037,50.00000000000419 30.000000000000583,50.00000000000419 C 41.0500000000008,50.00000000000419 50.000000000000966,41.05000000000344 50.000000000000966,30.000000000002515 C 50.000000000000966,18.950000000001584 41.0500000000008,10.000000000000838 30.000000000000583,10.000000000000838 Z M 38.75000000000075,20.000000000001677 C 40.825000000000784,20.000000000001677 42.500000000000824,21.675000000001816 42.500000000000824,23.75000000000199 C 42.500000000000824,25.825000000002166 40.825000000000784,27.500000000002306 38.75000000000075,27.500000000002306 C 36.675000000000715,27.500000000002306 35.000000000000675,25.825000000002166 35.000000000000675,23.75000000000199 C 35.000000000000675,21.675000000001816 36.67500000000071,20.000000000001677 38.75000000000075,20.000000000001677 Z M 21.250000000000412,20.000000000001677 C 23.32500000000045,20.000000000001677 25.000000000000483,21.675000000001816 25.000000000000483,23.75000000000199 C 25.000000000000483,25.825000000002166 23.32500000000045,27.500000000002306 21.250000000000412,27.500000000002306 C 19.17500000000037,27.500000000002306 17.500000000000338,25.825000000002166 17.500000000000338,23.75000000000199 C 17.500000000000338,21.675000000001816 19.17500000000037,20.000000000001677 21.250000000000412,20.000000000001677 Z M 38.625000000000746,43.750000000003666 C 36.87500000000071,40.775000000003416 33.70000000000065,38.75000000000325 30.000000000000583,38.75000000000325 C 26.300000000000512,38.75000000000325 23.10000000000045,40.775000000003416 21.375000000000416,43.750000000003666 L 17.200000000000333,43.750000000003666 C 21.03966868029432,33.89655540679099 34.106128272352294,31.894715806903093 40.71962726470936,40.146688722759706 C 41.5920099054209,41.2352014649155 42.293511633306686,42.450238100248974 42.80000000000083,43.750000000003666 L 38.62500000000075,43.750000000003666 Z" fill="rgba(0, 0, 0, 0.3)" stroke="rgba(255,255,255,0.01)"/><path d="M 35.000000000000675,23.75000000000199 C 35.000000000000675,26.636751345950366 38.12500000000074,28.440970937168096 40.62500000000079,26.997595264193908 C 41.7852540378452,26.327722283116046 42.500000000000824,25.089745962157714 42.500000000000824,23.75000000000199 C 42.500000000000824,20.863248654053617 39.37500000000076,19.05902906283589 36.87500000000071,20.502404735810074 C 35.7147459621563,21.172277716887933 35.000000000000675,22.41025403784627 35.000000000000675,23.75000000000199" fill="rgb(0, 0, 0)" stroke="rgba(255,255,255,0.01)"/><path d="M 17.500000000000338,23.75000000000199 C 17.500000000000338,26.636751345950366 20.625000000000398,28.440970937168096 23.125000000000448,26.997595264193908 C 24.285254037844858,26.327722283116046 25.000000000000483,25.089745962157714 25.000000000000483,23.75000000000199 C 25.000000000000483,20.863248654053617 21.875000000000423,19.05902906283589 19.375000000000377,20.502404735810074 C 18.214745962155966,21.172277716887933 17.500000000000338,22.41025403784627 17.500000000000338,23.75000000000199" fill="rgb(0, 0, 0)" stroke="rgba(255,255,255,0.01)"/><path d="M 29.97500000000058,5.000000000000419 C 16.175000000000313,5.000000000000419 5.000000000000097,16.20000000000136 5.000000000000097,30.000000000002515 C 5.000000000000097,43.80000000000367 16.175000000000313,55.00000000000461 29.97500000000058,55.00000000000461 C 43.80000000000085,55.00000000000461 55.000000000001066,43.80000000000367 55.000000000001066,30.000000000002515 C 55.000000000001066,16.20000000000136 43.80000000000085,5.000000000000419 29.97500000000058,5.000000000000419 Z M 30.000000000000583,50.00000000000419 C 18.95000000000037,50.00000000000419 10.000000000000194,41.05000000000344 10.000000000000194,30.000000000002515 C 10.000000000000194,18.950000000001584 18.95000000000037,10.000000000000838 30.000000000000583,10.000000000000838 C 41.0500000000008,10.000000000000838 50.000000000000966,18.950000000001587 50.000000000000966,30.000000000002515 C 50.000000000000966,41.05000000000344 41.0500000000008,50.00000000000419 30.000000000000583,50.00000000000419 Z M 30.000000000000583,35.000000000002935 C 24.17500000000047,35.000000000002935 19.200000000000372,38.62500000000324 17.200000000000333,43.750000000003666 L 21.375000000000416,43.750000000003666 C 23.10000000000045,40.775000000003416 26.300000000000512,38.75000000000325 30.000000000000583,38.75000000000325 C 33.70000000000065,38.75000000000325 36.87500000000071,40.775000000003416 38.625000000000746,43.750000000003666 L 42.80000000000082,43.750000000003666 C 40.80000000000078,38.62500000000324 35.82500000000069,35.000000000002935 30.000000000000572,35.000000000002935 Z" fill="rgb(0, 0, 0)" stroke="rgba(255,255,255,0.01)"/></g><g transform="translate(1380.0000000000005, 660.000000000005) rotate(0, 0, 0)" width="0" height="36"><text text-decoration="none" x="0" fill="#4b4b4b" font-size="10pt" font-family="noto_regular"  y="17"></text></g></g><g id="feA0l3fiv1K"><g transform="translate(1619.9999999999998 520.0000000000002)"><rect x="0" y="0" width="59.99999999994263" height="60.00000000003969" fill="rgba(255,255,255,0.01)" stroke="rgba(255,255,255,0.01)"/><path d="M 0,0 L 59.99999999994263,0 L 59.99999999994263,60.00000000003969 L 0,60.00000000003969 L 0,0 Z" fill="rgba(255,255,255,0.01)" stroke="rgba(255,255,255,0.01)"/><path d="M 29.999999999971315,10.000000000006615 C 18.94999999998188,10.000000000006615 9.999999999990438,18.950000000012537 9.999999999990438,30.000000000019845 C 9.999999999990438,41.05000000002716 18.94999999998188,50.000000000033076 29.999999999971315,50.000000000033076 C 41.049999999960754,50.000000000033076 49.99999999995219,41.05000000002716 49.99999999995219,30.000000000019845 C 49.99999999995219,18.95000000001253 41.049999999960754,10.000000000006615 29.999999999971315,10.000000000006615 Z M 38.749999999962945,20.00000000001323 C 40.82499999996096,20.00000000001323 42.499999999959364,21.67500000001434 42.499999999959364,23.75000000001571 C 42.499999999959364,25.825000000017084 40.82499999996096,27.50000000001819 38.749999999962945,27.50000000001819 C 36.67499999996493,27.50000000001819 34.99999999996653,25.825000000017084 34.99999999996653,23.75000000001571 C 34.99999999996653,21.67500000001434 36.67499999996493,20.00000000001323 38.749999999962945,20.00000000001323 Z M 21.249999999979682,20.00000000001323 C 23.324999999977695,20.00000000001323 24.999999999976094,21.67500000001434 24.999999999976094,23.75000000001571 C 24.999999999976094,25.825000000017084 23.324999999977695,27.50000000001819 21.249999999979682,27.50000000001819 C 19.174999999981665,27.50000000001819 17.499999999983267,25.825000000017084 17.499999999983267,23.75000000001571 C 17.499999999983267,21.67500000001434 19.174999999981665,20.00000000001323 21.249999999979682,20.00000000001323 Z M 29.999999999971315,43.75000000002894 C 24.174999999976883,43.75000000002894 19.19999999998164,40.125000000026546 17.199999999983554,35.00000000002315 L 21.37499999997956,35.00000000002315 C 23.124999999977888,37.97500000002512 26.299999999974855,40.00000000002646 29.999999999971315,40.00000000002646 C 33.69999999996777,40.00000000002646 36.87499999996474,37.97500000002512 38.624999999963066,35.00000000002315 L 42.79999999995907,35.00000000002315 C 40.79999999996098,40.125000000026546 35.82499999996574,43.75000000002894 29.999999999971305,43.75000000002894 Z" fill="rgba(0, 0, 0, 0.3)" stroke="rgba(255,255,255,0.01)"/><path d="M 34.99999999996653,23.75000000001571 C 34.99999999996653,26.636751345965752 38.12499999996354,28.440970937184524 40.624999999961155,26.997595264209505 C 41.785254037804435,26.32772228313125 42.499999999959364,25.08974596217221 42.499999999959364,23.75000000001571 C 42.499999999959364,20.86324865406567 39.37499999996235,19.0590290628469 36.87499999996474,20.50240473582192 C 35.71474596212146,21.172277716900165 34.99999999996653,22.410254037859215 34.99999999996653,23.75000000001571" fill="rgb(0, 0, 0)" stroke="rgba(255,255,255,0.01)"/><path d="M 17.499999999983267,23.75000000001571 C 17.499999999983267,26.636751345965752 20.62499999998028,28.440970937184524 23.124999999977888,26.997595264209505 C 24.285254037821165,26.32772228313125 24.999999999976094,25.08974596217221 24.999999999976094,23.75000000001571 C 24.999999999976094,20.86324865406567 21.87499999997908,19.0590290628469 19.374999999981473,20.50240473582192 C 18.214745962138196,21.172277716900165 17.499999999983267,22.410254037859215 17.499999999983267,23.75000000001571" fill="rgb(0, 0, 0)" stroke="rgba(255,255,255,0.01)"/><path d="M 29.999999999971315,40.00000000002646 C 26.29999999997485,40.00000000002646 23.124999999977888,37.97500000002512 21.37499999997956,35.00000000002315 L 17.199999999983554,35.00000000002315 C 21.039668680273795,44.85344459324152 34.10612827231902,46.85528419313057 40.71962726466963,38.60331127726919 C 41.59200990538032,37.514798535112774 42.293511633265425,36.2997618997786 42.79999999995908,35.00000000002315 L 38.624999999963066,35.00000000002315 C 36.87499999996474,37.97500000002512 33.69999999996778,40.00000000002646 29.999999999971315,40.00000000002646 Z M 29.974999999971338,5.000000000003308 C 16.174999999984532,5.000000000003308 4.999999999995219,16.200000000010718 4.999999999995219,30.000000000019845 C 4.999999999995219,43.80000000002897 16.174999999984532,55.00000000003638 29.974999999971338,55.00000000003638 C 43.79999999995812,55.00000000003638 54.999999999947406,43.80000000002897 54.999999999947406,30.000000000019845 C 54.999999999947406,16.200000000010718 43.79999999995812,5.000000000003308 29.974999999971338,5.000000000003308 Z M 29.999999999971315,50.000000000033076 C 18.94999999998188,50.000000000033076 9.999999999990438,41.05000000002716 9.999999999990438,30.000000000019845 C 9.999999999990438,18.95000000001253 18.94999999998188,10.000000000006615 29.999999999971315,10.000000000006615 C 41.049999999960754,10.000000000006615 49.99999999995219,18.950000000012537 49.99999999995219,30.000000000019845 C 49.99999999995219,41.05000000002716 41.049999999960754,50.000000000033076 29.999999999971315,50.000000000033076 Z" fill="rgb(0, 0, 0)" stroke="rgba(255,255,255,0.01)"/></g><g transform="translate(1649.9999999999711, 590.0000000000399) rotate(0, 0, 0)" width="0" height="36"><text text-decoration="none" x="0" fill="#4b4b4b" font-size="10pt" font-family="noto_regular"  y="17"></text></g></g><g id="DYKZgKw3HQY"><g><path d="M 600,620 C 705.0000000000653,620 705.0000000000653,570.0000000000198 810,570" fill="none" stroke="#7E7E7E" stroke-width="2" stroke-linecap="round" stroke-linejoin="round"/></g></g><g id="GxjOQLtBaGr"><g><path d="M 870,570 C 974.9999999999714,570.0000000000198 974.9999999999714,509.9999999999999 1080,510" fill="none" stroke="#7E7E7E" stroke-width="2" stroke-linecap="round" stroke-linejoin="round"/></g></g><g id="JBkAmC6kOgd"><g><path d="M 1140,510 C 1245,509.9999999999999 1245,620.0000000000025 1350,620" fill="none" stroke="#7E7E7E" stroke-width="2" stroke-linecap="round" stroke-linejoin="round"/></g></g><g id="s6MftK6MzHR"><g><path d="M 1410,620 C 1515.0000000000005,620.0000000000025 1515.0000000000005,550.00000000002 1620,550" fill="none" stroke="#7E7E7E" stroke-width="2" stroke-linecap="round" stroke-linejoin="round"/></g></g></svg>